<svg enable-background="new 0 0 344.906 178.331" version="1.1" viewBox="0 0 344.91 178.33" xml:space="preserve" xmlns="http://www.w3.org/2000/svg">
  <g fill="currentColor">
    <path d="m245.17 124.48 0.80655 2.4225 2.85 2.4234h-51.062l-0.80655-2.4234 2.755-2.4225h45.458z" />
    <path d="m172.44 86.143 0.0475-1.71 1.14 0.3325 26.078 39.71-2.755 2.4225-0.8075 6.461-23.702-47.216z" />
    <path d="m269.3 84.766 1.1875-0.3325-0.8075 3.42-20.853 41.468-2.85-2.4234 0.80845-7.8375 22.515-34.295z" />
    <path d="m211.25 64.008 0.7125 1.425-38.332 19.332-1.14-0.3325 0.8075-1.2825 37.952-19.142z" />
    <path d="m213.3 60.954c0-2.7104 0.7277-4.8308 2.1822-6.3631 1.4564-1.5333 3.3345-2.3 5.6373-2.3 1.5067 0 2.8662 0.36005 4.0764 1.0802 1.2094 0.72105 2.1318 1.7242 2.7674 3.0124s0.95285 2.7493 0.95285 4.3814c0 1.6558-0.3344 3.1369-1.0032 4.4432s-1.615 2.2962-2.8396 2.9678c-1.2264 0.67165-2.5479 1.008-3.9653 1.008-1.538 0-2.9108-0.37145-4.1211-1.1134-1.2112-0.74195-2.128-1.7566-2.7512-3.04s-0.93575-2.6429-0.93575-4.0764zm2.2258 0.02755c0 1.9665 0.52915 3.516 1.5865 4.6484 1.0592 1.1314 2.3864 1.6976 3.9834 1.6976 1.6254 0 2.965-0.5719 4.0156-1.7148s1.577-2.7645 1.577-4.865c0-1.3281-0.2242-2.488-0.6745-3.4789s-1.1068-1.7594-1.9712-2.3047c-0.86545-0.5453-1.8373-0.81795-2.9127-0.81795-1.5304 0-2.8462 0.52535-3.9501 1.5751-1.102 1.0498-1.654 2.8034-1.654 5.2602z" />
    <path d="m230.3 65.386 0.7125-1.425 40.281 19.998-0.8075 0.475-1.1875 0.3325-38.998-19.38z" />
    <path d="m177.66 39.33 2.167 0.5453c-0.4522 1.7765-1.2654 3.1312-2.4406 4.0632s-2.6125 1.3994-4.3102 1.3994c-1.7575 0-3.1863-0.35815-4.2874-1.0754-1.101-0.7163-1.939-1.7556-2.5137-3.1141-0.57475-1.3594-0.86165-2.8196-0.86165-4.3786 0-1.7005 0.32395-3.1854 0.9728-4.4517s1.5713-2.2296 2.7692-2.8861c1.197-0.65645 2.5137-0.9861 3.952-0.9861 1.6312 0 3.002 0.4161 4.1135 1.2483 1.1115 0.83315 1.8867 2.0026 2.3237 3.5122l-2.1223 0.50065c-0.3781-1.1875-0.92625-2.052-1.6444-2.5935-0.71915-0.5415-1.6236-0.81225-2.7122-0.81225-1.2521 0-2.299 0.3002-3.1407 0.90155-0.84075 0.60135-1.4316 1.4079-1.7727 2.4216s-0.5111 2.0577-0.5111 3.134c0 1.388 0.2014 2.5992 0.60515 3.6347s1.0308 1.8088 1.8829 2.3208 1.7736 0.76855 2.7664 0.76855c1.2074 0 2.2287-0.34865 3.0656-1.0469s1.4012-1.7328 1.6986-3.1056z" />
    <path d="m182.58 45.056v-16.328h2.167v6.7098h8.4464v-6.7098h2.167v16.329h-2.167v-7.6893h-8.4464v7.6893h-2.167v-9.5e-4z" />
    <path d="m205.72 47.891v1.4402h-8.1044c-0.0114-0.36195 0.0475-0.70965 0.1767-1.044 0.20805-0.551 0.53865-1.0934 0.99655-1.6274 0.456-0.5339 1.1115-1.1504 1.9656-1.8496 1.3262-1.0954 2.2258-1.9608 2.698-2.5973 0.4731-0.6365 0.70965-1.2398 0.70965-1.8078 0-0.5947-0.21375-1.0954-0.6422-1.5048-0.42655-0.4085-0.9842-0.61275-1.672-0.61275-0.7277 0-1.3082 0.21755-1.7442 0.6536s-0.65645 1.0393-0.66215 1.8098l-1.5438-0.1634c0.10545-1.1552 0.50445-2.0349 1.197-2.6391 0.69255-0.6061 1.6207-0.9082 2.7873-0.9082 1.1761 0 2.109 0.32585 2.794 0.97755 0.68685 0.6517 1.0298 1.4592 1.0298 2.4225 0 0.4902-0.09975 0.97185-0.30115 1.445s-0.53485 0.97185-1.0004 1.4953c-0.46645 0.52345-1.2388 1.2416-2.318 2.1546-0.90345 0.7581-1.4839 1.2711-1.7414 1.5418-0.25745 0.26885-0.4712 0.54055-0.63935 0.8132h6.0144v9.5e-4z" />
    <path d="m206.99 37.109c0-2.7104 0.7277-4.8308 2.1831-6.3631 1.4554-1.5333 3.3345-2.3 5.6364-2.3 1.5076 0 2.8662 0.36005 4.0764 1.0802 1.2103 0.72105 2.1328 1.7242 2.7674 3.0124 0.63555 1.2872 0.95285 2.7493 0.95285 4.3814 0 1.6558-0.3344 3.1369-1.0032 4.4432-0.66785 1.3062-1.614 2.2962-2.8396 2.9678s-2.547 1.008-3.9653 1.008c-1.5371 0-2.9108-0.37145-4.1211-1.1134s-2.127-1.7566-2.7512-3.04c-0.62415-1.2844-0.93575-2.6429-0.93575-4.0764zm2.2268 0.02755c0 1.9665 0.52915 3.516 1.5874 4.6484s2.3864 1.6976 3.9824 1.6976c1.6264 0 2.965-0.5719 4.0166-1.7148 1.0498-1.1428 1.576-2.7645 1.576-4.865 0-1.3281-0.2242-2.488-0.6745-3.4789-0.44935-0.99085-1.1058-1.7594-1.9712-2.3047s-1.8364-0.81795-2.9127-0.81795c-1.5295 0-2.8462 0.52535-3.9492 1.5751s-1.6549 2.8044-1.6549 5.2602z" />
    <path d="m225.46 45.056v-16.328h2.167v6.7098h8.4464v-6.7098h2.167v16.329h-2.167v-7.6893h-8.4464v7.6893h-2.167v-9.5e-4z" />
    <path d="m171.68 47.431h1.615v35.72l-0.8075 1.2825-0.8075-0.19v-36.812z" />
    <path d="m189.17 165.64c0-2.7104 0.7277-4.8308 2.1822-6.3631 1.4564-1.5333 3.3345-2.3 5.6373-2.3 1.5067 0 2.8662 0.36005 4.0764 1.0802 1.2094 0.72105 2.1318 1.7242 2.7674 3.0124s0.95285 2.7493 0.95285 4.3814c0 1.6558-0.3344 3.1369-1.0032 4.4432s-1.615 2.2962-2.8396 2.9678c-1.2264 0.67165-2.5479 1.008-3.9653 1.008-1.538 0-2.9108-0.37145-4.1211-1.1134-1.2112-0.74195-2.128-1.7566-2.7512-3.04s-0.93575-2.6429-0.93575-4.0764zm2.2268 0.02755c0 1.9665 0.52915 3.516 1.5865 4.6484 1.0592 1.1314 2.3864 1.6976 3.9834 1.6976 1.6254 0 2.965-0.5719 4.0156-1.7148s1.577-2.7645 1.577-4.865c0-1.3281-0.2242-2.488-0.6745-3.4789s-1.1068-1.7594-1.9712-2.3047c-0.86545-0.5453-1.8373-0.81795-2.9127-0.81795-1.5304 0-2.8462 0.52535-3.9501 1.5751-1.103 1.0507-1.654 2.8034-1.654 5.2602z" />
    <path d="m207.65 173.59v-16.329h2.167v6.7098h8.4464v-6.7098h2.167v16.329h-2.167v-7.6893h-8.4464v7.6893h-2.167z" />
    <path d="m197.76 154.78h-1.614v-21.421l0.8075-6.461 0.80655 2.4234v25.458z" />
    <path d="m222.59 98.161v-16.329h2.167v6.7098h8.4464v-6.7098h2.167v16.329h-2.167v-7.6893h-8.4464v7.6893h-2.167z" />
    <path d="m238.32 90.214c0-2.7104 0.7277-4.8308 2.1822-6.3631 1.4564-1.5333 3.3345-2.3 5.6373-2.3 1.5067 0 2.8662 0.36005 4.0764 1.0802 1.2094 0.72105 2.1318 1.7242 2.7674 3.0124s0.95285 2.7493 0.95285 4.3814c0 1.6558-0.3344 3.1369-1.0032 4.4432s-1.615 2.2962-2.8396 2.9678c-1.2264 0.67165-2.5479 1.008-3.9653 1.008-1.538 0-2.9108-0.37145-4.1211-1.1134-1.2112-0.74195-2.128-1.7566-2.7512-3.04s-0.93575-2.6438-0.93575-4.0764zm2.2258 0.02755c0 1.9665 0.52915 3.516 1.5865 4.6484 1.0592 1.1314 2.3864 1.6976 3.9834 1.6976 1.6254 0 2.965-0.5719 4.0156-1.7148s1.577-2.7645 1.577-4.865c0-1.3281-0.2242-2.488-0.6745-3.4789s-1.1068-1.7594-1.9712-2.3047c-0.86545-0.5453-1.8373-0.81795-2.9127-0.81795-1.5304 0-2.8462 0.52535-3.9501 1.5751-1.102 1.0498-1.654 2.8034-1.654 5.2602z" />
    <path d="m245.17 100.58h1.615v18.477l-0.80845 7.8375-0.80655-2.4225v-23.892z" />
    <path d="m275.7 125.4 2.167 0.5453c-0.45315 1.7765-1.2673 3.1312-2.4415 4.0632s-2.6116 1.3994-4.3092 1.3994c-1.7575 0-3.1863-0.35815-4.2874-1.0754-1.102-0.7163-1.939-1.7556-2.5137-3.1141-0.5738-1.3594-0.8607-2.8196-0.8607-4.3786 0-1.7005 0.32395-3.1854 0.97185-4.4517s1.5713-2.2296 2.7683-2.8861 2.5137-0.9861 3.952-0.9861c1.6312 0 3.002 0.4161 4.1135 1.2483 1.1134 0.83315 1.8867 2.0026 2.3246 3.5122l-2.1223 0.50065c-0.3781-1.1875-0.9272-2.052-1.6454-2.5935s-1.6236-0.81225-2.7122-0.81225c-1.2521 0-2.299 0.3002-3.1398 0.90155-0.8417 0.60135-1.4326 1.4079-1.7736 2.4216-0.3401 1.0127-0.51015 2.0577-0.51015 3.134 0 1.388 0.2014 2.5992 0.60515 3.6347s1.0317 1.8088 1.8829 2.3208 1.7736 0.76855 2.7654 0.76855c1.2074 0 2.2296-0.34865 3.0666-1.0469s1.4022-1.7328 1.6986-3.1056z" />
    <path d="m280.62 131.13v-16.329h2.167v6.7098h8.4464v-6.7098h2.167v16.329h-2.167v-7.6893h-8.4464v7.6893h-2.167z" />
    <path d="m303.76 133.96v1.4402h-8.1044c-0.0114-0.36195 0.0475-0.70965 0.1767-1.044 0.2071-0.551 0.53865-1.0934 0.9956-1.6274s1.1124-1.1504 1.9665-1.8496c1.3262-1.0954 2.2249-1.9608 2.698-2.5973s0.70965-1.2398 0.70965-1.8078c0-0.5947-0.2147-1.0954-0.64125-1.5048-0.42845-0.4085-0.98515-0.61275-1.673-0.61275-0.7277 0-1.3082 0.21755-1.7442 0.6536s-0.65645 1.0393-0.66215 1.8098l-1.5438-0.1634c0.10545-1.1552 0.50445-2.0349 1.197-2.6391 0.6916-0.6061 1.6207-0.9082 2.7873-0.9082 1.177 0 2.109 0.32585 2.7949 0.97755s1.0288 1.4592 1.0288 2.4225c0 0.4902-0.1007 0.97185-0.30115 1.445s-0.53485 0.97185-1.0004 1.4953c-0.46645 0.52345-1.2398 1.2416-2.318 2.1546-0.9025 0.7581-1.4839 1.2711-1.7414 1.5418-0.25745 0.26885-0.4712 0.54055-0.63935 0.8132h6.0144v9.5e-4z" />
    <path d="m305.03 123.18c0-2.7104 0.7277-4.8308 2.1831-6.3631 1.4554-1.5333 3.3345-2.3 5.6364-2.3 1.5076 0 2.8671 0.36005 4.0764 1.0802 1.2094 0.72105 2.1328 1.7242 2.7683 3.0124 0.6346 1.2872 0.9519 2.7493 0.9519 4.3814 0 1.6558-0.3344 3.1369-1.0022 4.4432-0.6688 1.3062-1.616 2.2962-2.8405 2.9678-1.2255 0.67165-2.5479 1.008-3.9653 1.008-1.5371 0-2.9108-0.37145-4.1211-1.1134s-2.127-1.7566-2.7512-3.04c-0.6232-1.2854-0.93575-2.6429-0.93575-4.0764zm2.2268 0.02755c0 1.9665 0.52915 3.516 1.5874 4.6484s2.3864 1.6976 3.9824 1.6976c1.6264 0 2.965-0.5719 4.0166-1.7148s1.576-2.7645 1.576-4.865c0-1.3281-0.2242-2.488-0.67355-3.4789-0.4503-0.99085-1.1077-1.7594-1.9722-2.3047s-1.8364-0.81795-2.9127-0.81795c-1.5295 0-2.8462 0.52535-3.9492 1.5751s-1.6549 2.8034-1.6549 5.2602z" />
    <path d="m323.5 131.13v-16.329h2.167v6.7098h8.4464v-6.7098h2.167v16.329h-2.167v-7.6893h-8.4464v7.6893h-2.167z" />
    <path d="m271.29 112.36h-1.615v-24.51l0.8075-3.42 0.8075-0.475v28.405z" />
    <path d="m97.394 116.69 2.7075 2.4234-0.8075 2.4206h-50.872l2.66-2.4206 0.80655-2.4234h45.506z" />
    <path d="m17.262 86.571-0.8075-2.1375h1.1875l32.632 29.118 0.8075 5.5584-2.66 2.4206-31.16-34.959z" />
    <path d="m50.274 49.473 0.8075 0.3325 0.3325 0.8075-33.772 33.82h-1.1875l-0.8075-0.3325 34.628-34.628z" />
    <path d="m92.318 50.835c0-2.7104 0.7277-4.8308 2.1831-6.3631 1.4554-1.5333 3.3345-2.3 5.6364-2.3 1.5076 0 2.8662 0.36005 4.0764 1.0802 1.2103 0.72105 2.1328 1.7242 2.7683 3.0124s0.9519 2.7493 0.9519 4.3814c0 1.6558-0.3344 3.1369-1.0022 4.4432s-1.615 2.2962-2.8405 2.9678-2.547 1.008-3.9653 1.008c-1.5371 0-2.9108-0.37145-4.1211-1.1134s-2.127-1.7566-2.7512-3.04-0.93575-2.6429-0.93575-4.0764zm2.2268 0.0285c0 1.9665 0.52915 3.516 1.5874 4.6484s2.3864 1.6976 3.9824 1.6976c1.6264 0 2.965-0.5719 4.0166-1.7148 1.0507-1.1428 1.576-2.7645 1.576-4.865 0-1.3281-0.2242-2.488-0.67355-3.4789s-1.1068-1.7594-1.9722-2.3047-1.8364-0.81795-2.9127-0.81795c-1.5295 0-2.8462 0.52535-3.9492 1.5751s-1.6549 2.8034-1.6549 5.2602z" />
    <path d="m90.079 48.998v1.615h-38.665l-0.3325-0.8075 0.80655-0.8075h38.191z" />
    <path d="m135.39 83.958-0.6175 0.475h-1.1875l-26.172-26.22 1.14-1.14 26.838 26.885z" />
    <path d="m100.91 123.67-0.8075-4.5581-2.7075-2.4234 36.195-32.252h1.1875l-0.1425 1.3775-33.725 37.857z" />
    <path d="m43.298 82.423c0-2.7104 0.7277-4.8308 2.1831-6.3631 1.4554-1.5333 3.3345-2.3 5.6364-2.3 1.5076 0 2.8662 0.36005 4.0764 1.0802 1.2103 0.72105 2.1328 1.7242 2.7683 3.0124s0.9519 2.7493 0.9519 4.3814c0 1.6558-0.3344 3.1369-1.0022 4.4432s-1.615 2.2962-2.8405 2.9678-2.547 1.008-3.9653 1.008c-1.5371 0-2.9108-0.37145-4.1211-1.1134s-2.127-1.7566-2.7512-3.04-0.93575-2.6429-0.93575-4.0764zm2.2268 0.0285c0 1.9665 0.52915 3.516 1.5874 4.6484s2.3864 1.6976 3.9824 1.6976c1.6264 0 2.965-0.5719 4.0166-1.7148 1.0507-1.1428 1.576-2.7645 1.576-4.865 0-1.3281-0.2242-2.488-0.67355-3.4789s-1.1068-1.7594-1.9722-2.3047-1.8364-0.81795-2.9127-0.81795c-1.5295 0-2.8462 0.52535-3.9492 1.5751s-1.6549 2.8034-1.6549 5.2602z" />
    <path d="m61.774 90.371v-16.329h2.167v6.7098h8.4464v-6.7098h2.167v16.329h-2.167v-7.6893h-8.4464v7.6893h-2.167z" />
    <path d="m50.274 92.792h1.614v23.893l-0.80655 2.4234-0.8075-5.5584v-20.758z" />
    <path d="m92.318 157.85c0-2.7104 0.7277-4.8308 2.1831-6.3631 1.4554-1.5333 3.3345-2.3 5.6364-2.3 1.5076 0 2.8662 0.36005 4.0764 1.0802 1.2103 0.72105 2.1328 1.7242 2.7683 3.0124s0.9519 2.7493 0.9519 4.3814c0 1.6558-0.3344 3.1369-1.0022 4.4432s-1.615 2.2962-2.8405 2.9678-2.547 1.008-3.9653 1.008c-1.5371 0-2.9108-0.37145-4.1211-1.1134s-2.127-1.7566-2.7512-3.04-0.93575-2.6429-0.93575-4.0764zm2.2268 0.02755c0 1.9665 0.52915 3.516 1.5874 4.6484s2.3864 1.6976 3.9824 1.6976c1.6264 0 2.965-0.5719 4.0166-1.7148 1.0507-1.1428 1.576-2.7645 1.576-4.865 0-1.3281-0.2242-2.488-0.67355-3.4789s-1.1068-1.7594-1.9722-2.3047-1.8364-0.81795-2.9127-0.81795c-1.5295 0-2.8462 0.52535-3.9492 1.5751s-1.6549 2.8034-1.6549 5.2602z" />
    <path d="m110.79 165.8v-16.329h2.167v6.7098h8.4464v-6.7098h2.167v16.329h-2.167v-7.6893h-8.4464v7.6893h-2.167z" />
    <path d="m100.91 146.99h-1.615v-25.461l0.8075-2.4206 0.8075 4.5581v23.323z" />
    <path d="m149.36 108.09-1.425 0.80845-13.3-23.086 0.1425-1.3775 0.6175-0.475 13.965 24.13z" />
    <path d="m8.6226 123.18c0-2.7104 0.7277-4.8308 2.1831-6.3631 1.4554-1.5333 3.3345-2.3 5.6364-2.3 1.5076 0 2.8662 0.36005 4.0764 1.0802 1.2103 0.72105 2.1328 1.7242 2.7683 3.0124s0.9519 2.7493 0.9519 4.3814c0 1.6558-0.3344 3.1369-1.0022 4.4432s-1.615 2.2962-2.8405 2.9678-2.547 1.008-3.9653 1.008c-1.5371 0-2.9108-0.37145-4.1211-1.1134s-2.127-1.7566-2.7512-3.04-0.93575-2.6429-0.93575-4.0764zm2.2268 0.02755c0 1.9665 0.52915 3.516 1.5874 4.6484s2.3864 1.6976 3.9824 1.6976c1.6264 0 2.965-0.5719 4.0166-1.7148 1.0507-1.1428 1.576-2.7645 1.576-4.865 0-1.3281-0.2242-2.488-0.67355-3.4789s-1.1068-1.7594-1.9722-2.3047-1.8364-0.81795-2.9127-0.81795c-1.5295 0-2.8462 0.52535-3.9492 1.5751s-1.6549 2.8034-1.6549 5.2602z" />
    <path d="m27.099 131.13v-16.329h2.167v6.7098h8.4464v-6.7098h2.167v16.329h-2.167v-7.6893h-8.4464v7.6893h-2.167z" />
    <path d="m17.262 112.36h-1.615v-28.262l0.8075 0.3325 0.8075 2.1375v25.792z" />
    <path d="m56.301 15.342 2.167 0.5453c-0.4522 1.7765-1.2664 3.1312-2.4406 4.0632-1.1752 0.93195-2.6125 1.3994-4.3102 1.3994-1.7575 0-3.1863-0.35815-4.2874-1.0754-1.101-0.7163-1.939-1.7556-2.5137-3.1141-0.57475-1.3594-0.86165-2.8196-0.86165-4.3786 0-1.7005 0.32395-3.1854 0.9728-4.4517s1.5713-2.2296 2.7692-2.8861c1.196-0.65645 2.5137-0.9861 3.952-0.9861 1.6312 0 3.002 0.4161 4.1135 1.2483 1.1124 0.83315 1.8867 2.0026 2.3237 3.5122l-2.1223 0.50065c-0.3781-1.1875-0.92625-2.052-1.6444-2.5935-0.71915-0.5415-1.6236-0.81225-2.7122-0.81225-1.2521 0-2.299 0.3002-3.1407 0.90155-0.84075 0.60135-1.4316 1.4079-1.7727 2.4216s-0.5111 2.0577-0.5111 3.134c0 1.388 0.2014 2.5992 0.60515 3.6347s1.0308 1.8088 1.8829 2.3208 1.7736 0.76855 2.7664 0.76855c1.2074 0 2.2287-0.34865 3.0656-1.0469s1.4012-1.7328 1.6986-3.1056z" />
    <path d="m61.218 21.068v-16.328h2.167v6.7098h8.4464v-6.7098h2.167v16.329h-2.167v-7.6893h-8.4464v7.6893h-2.167v-9.5e-4z" />
    <path d="m84.362 23.904v1.4402h-8.1044c-0.0114-0.36195 0.0475-0.70965 0.1767-1.044 0.2071-0.551 0.53865-1.0934 0.9956-1.6274 0.456-0.5339 1.1115-1.1504 1.9665-1.8496 1.3262-1.0954 2.2249-1.9608 2.698-2.5973s0.70965-1.2398 0.70965-1.8078c0-0.5947-0.21375-1.0954-0.64125-1.5048-0.4275-0.4085-0.98515-0.61275-1.672-0.61275-0.7277 0-1.3082 0.21755-1.7442 0.6536s-0.65645 1.0393-0.66215 1.8098l-1.5438-0.1634c0.10545-1.1552 0.50445-2.0349 1.197-2.6391 0.6916-0.6061 1.6207-0.9082 2.7873-0.9082 1.177 0 2.109 0.32585 2.7949 0.97755s1.0288 1.4592 1.0288 2.4225c0 0.4902-0.1007 0.97185-0.30115 1.445s-0.53485 0.97185-1.0004 1.4953c-0.46645 0.52345-1.2388 1.2416-2.318 2.1546-0.90345 0.7581-1.4839 1.2711-1.7414 1.5418-0.25745 0.26885-0.4712 0.54055-0.63935 0.8132h6.0135v9.5e-4z" />
    <path d="m85.623 13.121c0-2.7104 0.7277-4.8308 2.1831-6.3631 1.4554-1.5333 3.3345-2.3 5.6364-2.3 1.5076 0 2.8662 0.36005 4.0764 1.0802 1.2103 0.72105 2.1328 1.7242 2.7683 3.0124s0.9519 2.7493 0.9519 4.3814c0 1.6558-0.3344 3.1369-1.0022 4.4432s-1.615 2.2962-2.8405 2.9678-2.547 1.008-3.9653 1.008c-1.5371 0-2.9108-0.37145-4.1211-1.1134s-2.127-1.7566-2.7512-3.04-0.93575-2.6429-0.93575-4.0764zm2.2268 0.02755c0 1.9665 0.52915 3.516 1.5874 4.6484s2.3864 1.6976 3.9824 1.6976c1.6264 0 2.965-0.5719 4.0166-1.7148 1.0507-1.1428 1.576-2.7645 1.576-4.865 0-1.3281-0.2242-2.488-0.67355-3.4789s-1.1068-1.7594-1.9722-2.3047-1.8364-0.81795-2.9127-0.81795c-1.5295 0-2.8462 0.52535-3.9492 1.5751s-1.6549 2.8044-1.6549 5.2602z" />
    <path d="m104.1 21.068v-16.328h2.167v6.7098h8.4464v-6.7098h2.167v16.329h-2.167v-7.6893h-8.4464v7.6893h-2.167v-9.5e-4z" />
    <path d="m50.274 23.443h1.614v25.555l-0.80655 0.8075-0.8075-0.3325v-26.03z" />
    <path d="m145.8 118.14c0-2.7104 0.7277-4.8308 2.1831-6.3631 1.4554-1.5333 3.3345-2.3 5.6364-2.3 1.5076 0 2.8662 0.36005 4.0764 1.0802 1.2103 0.72105 2.1328 1.7242 2.7683 3.0124s0.9519 2.7493 0.9519 4.3814c0 1.6558-0.3344 3.1369-1.0022 4.4432s-1.615 2.2962-2.8405 2.9678-2.547 1.008-3.9653 1.008c-1.5371 0-2.9108-0.37145-4.1211-1.1134s-2.127-1.7566-2.7512-3.04-0.93575-2.6429-0.93575-4.0764zm2.2268 0.02755c0 1.9665 0.52915 3.516 1.5874 4.6484s2.3864 1.6976 3.9824 1.6976c1.6264 0 2.965-0.5719 4.0166-1.7148 1.0507-1.1428 1.576-2.7645 1.576-4.865 0-1.3281-0.2242-2.488-0.67355-3.4789s-1.1068-1.7594-1.9722-2.3047-1.8364-0.81795-2.9127-0.81795c-1.5295 0-2.8462 0.52535-3.9492 1.5751s-1.6549 2.8034-1.6549 5.2602z" />
    <path d="m159.29 108.9-1.3775-0.80845 13.775-23.845 0.8075 0.19-0.0475 1.71-13.158 22.753z" />
  </g>
</svg>
