<svg
  viewBox="-10 -10 1235 685"
  xml:space="preserve"
  xmlns="http://www.w3.org/2000/svg"
>
  <g transform="matrix(.92008 0 0 .92008 -8.9842 -19.167)">
    <g fill="currentColor">
      <polygon points="251.5 206.8 260.5 213.3 332.5 318.8 323.5 331.3 305 327.3 249 211.8" />
      <polygon points="323.5 331.3 332.5 318.8 471.5 282.3 462.5 295.3 463.5 305.3 347.5 335.3" />
      <polygon points="462.5 295.3 471.5 282.3 592 324.3 601 331.3 597 334.8 477.5 312.8" />
      <polygon points="551 252.8 558 248.8 605 330.3 601 331.3 592 324.3" />
      <polygon points="389.5 247.3 389.5 243.3 391.5 238.8 481.5 215.3 483.5 222.8" />
      <polygon points="389.5 243.3 389.5 247.3 260.5 213.3 251.5 206.8 251 202.8 381.5 236.8" />
      <polygon points="605 429.8 597 429.8 597 334.8 601 331.3 605 330.3" />
      <polygon points="740 438.3 749.5 444.8 823.5 552.8 812 562.8 808 589.3 738 442.8" />
      <polygon points="812 562.8 823.5 552.8 952 552.8 956 562.8 967.5 572.8 816 572.8" />
      <polygon points="1025 470.8 1022.5 474.8 1013.5 478.8 972 478.8 972 470.8" />
      <polygon points="749.5 444.8 740 438.3 744 435.3 834.5 459.3 832.5 466.8" />
      <polygon points="956 562.8 960 536.8 1013.5 478.8 1022.5 474.8 1022.5 482.8 967.5 572.8" />
      <polygon points="952 425.3 960 425.3 960 536.8 956 562.8 952 552.8" />
      <polygon points="1097 595.3 1092.5 603.3 1022.5 482.8 1022.5 474.8 1025 470.8" />
      <polygon points="1192 595.3 1192 603.3 1092.5 603.3 1097 595.3" />
      <polygon points="816 661.3 808 661.3 808 589.3 812 562.8 816 572.8" />
      <polygon points="736 291.8 744 296.8 744 435.3 740 438.3 736 435.3" />
      <polygon points="820 243.3 824 250.3 744 296.8 736 291.8" />
      <polygon points="645.5 467.8 643.5 460.3 736 435.3 740 438.3 738 442.8" />
      <polygon points="155.5 236.8 153.5 228.8 251 202.8 251.5 206.8 249 211.8" />
      <polygon points="223.5 335.3 223.5 327.3 305 327.3 323.5 331.3 347.5 335.3" />
      <polygon points="514.5 377.3 507.5 381.3 463.5 305.3 462.5 295.3 477.5 312.8" />
      <polygon points="312 117.3 323 120.3 391.5 238.8 389.5 243.3 381.5 236.8" />
      <polygon points="397.5 67.8 401.5 74.802 323 120.3 312 117.3" />
      <rect x="923.5" y="470.8" width="16.494" height="7.998" />
    </g>
    <g fill="currentColor" font-size="96px">
      <text transform="translate(826 261.3)">OH</text>
      <text transform="translate(490 245.8)">O</text>
      <text transform="translate(839.5 513.8)">O</text>
      <text transform="translate(917 412.8)">OH</text>
      <text transform="translate(1199.5 638.3)">OH</text>
      <text transform="translate(773 745.8)">OH</text>
      <text transform="translate(562 514.3)">O</text>
      <text transform="translate(-.00097656 283.3)">HO</text>
      <text transform="translate(67.499 370.3)">HO</text>
      <text transform="translate(422.5 458.8)">HO</text>
      <text transform="translate(403.5 85.797)">OH</text>
    </g>
  </g>
</svg>
