<svg version="1.1" viewBox="0 0 512 512" xml:space="preserve" xmlns="http://www.w3.org/2000/svg" xmlns:xlink="http://www.w3.org/1999/xlink"><defs><linearGradient id="linearGradient6" x1="48" x2="304" y1="256" y2="256" gradientUnits="userSpaceOnUse"><stop stop-color="#bf616a" offset="0"/><stop stop-color="#d08770" offset="1"/></linearGradient><linearGradient id="linearGradient8" x1="-.002" x2="512" y1="256" y2="256" gradientUnits="userSpaceOnUse"><stop stop-color="#5e81ac" offset="0"/><stop stop-color="#81a1c1" offset=".5"/><stop stop-color="#88c0d0" offset="1"/></linearGradient></defs><path d="m256 464c-88.366 0-160-93.125-160-208s71.634-208 160-208" fill="none" stroke="url(#linearGradient6)" stroke-linecap="round" stroke-width="96"/><g fill="none" stroke="url(#linearGradient8)" stroke-linecap="round"><path d="m464 256c0 114.88-93.125 208-208 208-57.438 0-109.44-23.281-147.08-60.922-37.641-37.641-60.922-89.641-60.922-147.08 0-57.438 23.281-109.44 60.922-147.08 37.641-37.641 89.641-60.922 147.08-60.922" stroke-width="96"/><path d="m108.92 403.08 73.539-73.539" stroke-width="48"/><path d="m108.92 108.92 73.539 73.539" stroke-width="48"/></g></svg>
