<svg version="1.1" viewBox="0 0 512 512" xml:space="preserve" xmlns="http://www.w3.org/2000/svg" xmlns:xlink="http://www.w3.org/1999/xlink"><defs><linearGradient id="linearGradient106" x1=".5" x2="511.5" y1="256" y2="256" gradientUnits="userSpaceOnUse"><stop stop-color="#5e81ac" offset="0"/><stop stop-color="#81a1c1" offset=".5"/><stop stop-color="#88c0d0" offset="1"/></linearGradient><linearGradient id="linearGradient108" x1="96.5" x2="380.32" y1="220.15" y2="220.15" gradientUnits="userSpaceOnUse"><stop stop-color="#bf616a" offset="0"/><stop stop-color="#c7746d" offset=".49948"/><stop stop-color="#ebcb8b" offset="1"/></linearGradient></defs><path d="m144.68 143.03c-25.21 24.946-41.267 57.666-45.576 92.869l-0.79492 7.0566c-0.58063 3.8581-1.0178 7.7364-1.3105 11.627 0.31304 31.608 10.125 62.392 28.16 88.352 3.2883-4.4089 6.9433-8.5317 10.926-12.324-4.437-14.266-6.8229-29.09-7.0859-44.027 0.2067-14.027 2.2856-27.964 6.1816-41.441 0.44341-1.3238 0.90438-2.6416 1.3828-3.9531 7.2354-23.665 19.942-45.293 37.092-63.133-12.28-9.2275-22.208-21.229-28.975-35.025zm109.9-46.031c-9.8942 0.17879-19.75 1.2892-29.436 3.3164 6.5072 11.619 10.567 24.445 11.928 37.688 15.914-5.6338 32.629-8.6738 49.508-9.0039 12.416 5.5e-4 24.788 1.4684 36.859 4.373 20.197 4.8628 39.233 13.671 56.014 25.918 0.0816-0.11311 8e-3 -0.31478 0.0895-0.42824-13.89-18.188-31.42-33.045-51.67-43.707-22.599-11.902-47.752-18.133-73.293-18.156z" fill="url(#linearGradient108)"/><path d="m256 1c-67.4 1.5017-124.71 25.397-175.05 70.795-5.8121 5.2979-11.376 10.862-16.674 16.674-40.654 46.357-63.134 105.87-63.279 167.53-4.418e-5 140.83 114.17 255 255 255 84.037-0.00772 162.67-41.42 210.23-110.71 29.157-42.47 44.767-92.776 44.773-144.29-0.0221-35.207-7.3345-70.028-21.477-102.27-27.251 39.169-42.965 85.198-45.355 132.85-0.0413 86.066-69.128 156.18-155.18 157.49-0.79988 0.0373-1.6 0.0686-2.4004 0.0937-36.108-0.0488-71.104-12.496-99.133-35.26 3.078-2.7713 5.9765-5.7356 8.6777-8.875 22.276-26.191 29.116-62.161 18.002-94.666-28.452-3.4836-57 5.7506-78.045 25.244-3.9825 3.7925-7.6375 7.9153-10.926 12.324-18.036-25.96-27.847-56.743-28.16-88.352 0.29277-3.8905 0.72992-7.7689 1.3105-11.627 0.21193-2.3579 0.47698-4.7107 0.79492-7.0566 4.3087-35.203 20.366-67.923 45.576-92.869 6.7668 13.797 16.695 25.798 28.975 35.025 14.706 11.026 32.226 17.667 50.537 19.154 7.8264-13.458 15.369-34.313 12.883-59.207-1.3612-13.243-5.4206-26.069-11.928-37.688 9.686-2.0272 19.541-3.1376 29.436-3.3164 25.541 0.02296 50.694 6.2539 73.293 18.156 20.25 10.662 37.69 25.947 51.58 44.135 5.7203-8.4536 10.323-18.093 13.162-27.898 14.747-51.548-14.845-105.32-66.246-120.38l-1.1133-0.31055c-22.531-6.4006-45.837-9.6663-69.26-9.7051z" fill="url(#linearGradient106)"/><g display="none" fill="none" stroke="#fff" stroke-width="2"><path d="m-1267.6 330.8a667.58 667.58 0 0 1-667.58 667.58 667.58 667.58 0 0 1-667.58-667.58 667.58 667.58 0 0 1 667.58-667.58 667.58 667.58 0 0 1 667.58 667.58z"/><path d="m-1522.6 330.8a412.58 412.58 0 0 1-412.58 412.58 412.58 412.58 0 0 1-412.58-412.58 412.58 412.58 0 0 1 412.58-412.58 412.58 412.58 0 0 1 412.58 412.58z"/><path d="m-1680.1 330.8a255 255 0 0 1-255 255 255 255 0 0 1-255-255 255 255 0 0 1 255-255 255 255 0 0 1 255 255z"/><path d="m-1777.6 330.8a157.58 157.58 0 0 1-157.58 157.58 157.58 157.58 0 0 1-157.58-157.58 157.58 157.58 0 0 1 157.58-157.58 157.58 157.58 0 0 1 157.58 157.58z"/><path d="m-1837.7 330.8a97.416 97.416 0 0 1-97.416 97.416 97.416 97.416 0 0 1-97.416-97.416 97.416 97.416 0 0 1 97.416-97.416 97.416 97.416 0 0 1 97.416 97.416z"/><path d="m-1875 330.8a60.169 60.169 0 0 1-60.168 60.169 60.169 60.169 0 0 1-60.169-60.169 60.169 60.169 0 0 1 60.169-60.169 60.169 60.169 0 0 1 60.168 60.169z"/><path d="m-1897.9 330.8a37.247 37.247 0 0 1-37.247 37.247 37.247 37.247 0 0 1-37.247-37.247 37.247 37.247 0 0 1 37.247-37.247 37.247 37.247 0 0 1 37.247 37.247z"/><path d="m-1912.2 330.8a22.921 22.921 0 0 1-22.921 22.921 22.921 22.921 0 0 1-22.921-22.921 22.921 22.921 0 0 1 22.921-22.921 22.921 22.921 0 0 1 22.921 22.921z"/><path d="m-1920.8 330.8a14.326 14.326 0 0 1-14.326 14.326 14.326 14.326 0 0 1-14.326-14.326 14.326 14.326 0 0 1 14.326-14.326 14.326 14.326 0 0 1 14.326 14.326z"/><path d="m-1926.5 330.8a8.5955 8.5955 0 0 1-8.5955 8.5955 8.5955 8.5955 0 0 1-8.5955-8.5955 8.5955 8.5955 0 0 1 8.5955-8.5955 8.5955 8.5955 0 0 1 8.5955 8.5955z"/><path d="m-1932.3 330.8a2.8652 2.8652 0 0 1-2.8651 2.8652 2.8652 2.8652 0 0 1-2.8652-2.8652 2.8652 2.8652 0 0 1 2.8652-2.8652 2.8652 2.8652 0 0 1 2.8651 2.8652z"/><path d="m-1929.4 330.8a5.7303 5.7303 0 0 1-5.7303 5.7303 5.7303 5.7303 0 0 1-5.7304-5.7303 5.7303 5.7303 0 0 1 5.7304-5.7303 5.7303 5.7303 0 0 1 5.7303 5.7303z"/></g></svg>
