<?xml version="1.0" encoding="UTF-8"?>
<svg width="512pt" height="512pt" version="1.0" viewBox="0 0 512 512" xmlns="http://www.w3.org/2000/svg">
  <g transform="translate(0 512) scale(.1 -.1)">
    <path d="m640 4960v-160h-160-160v-160-160h-160-160v-1920-1920h160 160v-160-160h160 160v-160-160h1920 1920v160 160h160 160v160 160h160 160v1920 1920h-160-160v160 160h-160-160v160 160h-1920-1920v-160zm3840-320v-160h160 160v-1600-1600h-160-160v-160-160h-1920-1920v160 160h-160-160v1600 1600h160 160v160 160h1920 1920v-160z"/>
    <path d="m1280 3200v-640h320 320v640 640h-320-320v-640z"/>
    <path d="m3200 3200v-640h320 320v640 640h-320-320v-640z"/>
    <path d="m960 2080v-160h480 480v160 160h-480-480v-160z"/>
    <path d="m3200 2080v-160h480 480v160 160h-480-480v-160z"/>
  </g>
</svg>
